<mxfile host="app.diagrams.net" modified="2024-02-02T11:36:31.281Z" agent="Mozilla/5.0 (Windows NT 10.0; Win64; x64) AppleWebKit/537.36 (KHTML, like Gecko) Chrome/120.0.0.0 Whale/3.24.223.21 Safari/537.36" etag="Q2N0UvQFjMLrpixgxdeM" version="23.1.1" type="github">
  <diagram name="페이지-1" id="yJ42jeg3FILkHG_x2WYu">
    <mxGraphModel dx="1388" dy="806" grid="1" gridSize="10" guides="1" tooltips="1" connect="1" arrows="1" fold="1" page="1" pageScale="1" pageWidth="827" pageHeight="1169" math="0" shadow="0">
      <root>
        <mxCell id="0" />
        <mxCell id="1" parent="0" />
        <mxCell id="KNWZaiqp1ryDB2W8Q7mW-1" value="스테이지 선택" style="rounded=0;whiteSpace=wrap;html=1;fontSize=16;fillColor=#dae8fc;strokeColor=#6c8ebf;" vertex="1" parent="1">
          <mxGeometry x="330" y="10" width="120" height="60" as="geometry" />
        </mxCell>
        <mxCell id="KNWZaiqp1ryDB2W8Q7mW-2" value="필드" style="rounded=0;whiteSpace=wrap;html=1;fontSize=16;fillColor=#dae8fc;strokeColor=#6c8ebf;" vertex="1" parent="1">
          <mxGeometry x="330" y="100" width="120" height="60" as="geometry" />
        </mxCell>
        <mxCell id="KNWZaiqp1ryDB2W8Q7mW-3" value="보스" style="rounded=0;whiteSpace=wrap;html=1;fontSize=16;fillColor=#dae8fc;strokeColor=#6c8ebf;" vertex="1" parent="1">
          <mxGeometry x="330" y="250" width="120" height="60" as="geometry" />
        </mxCell>
        <mxCell id="KNWZaiqp1ryDB2W8Q7mW-4" value="Life가 0인가?" style="rhombus;whiteSpace=wrap;html=1;fontSize=16;fillColor=#f8cecc;strokeColor=#b85450;" vertex="1" parent="1">
          <mxGeometry x="90" y="90" width="200" height="80" as="geometry" />
        </mxCell>
        <mxCell id="KNWZaiqp1ryDB2W8Q7mW-5" value="사망" style="rounded=0;whiteSpace=wrap;html=1;fontSize=16;fillColor=#f8cecc;strokeColor=#b85450;" vertex="1" parent="1">
          <mxGeometry x="130" y="190" width="120" height="60" as="geometry" />
        </mxCell>
        <mxCell id="KNWZaiqp1ryDB2W8Q7mW-12" value="" style="html=1;verticalAlign=bottom;endArrow=block;curved=0;rounded=0;fontSize=12;startSize=8;endSize=8;exitX=0.5;exitY=1;exitDx=0;exitDy=0;entryX=0.5;entryY=0;entryDx=0;entryDy=0;" edge="1" parent="1" source="KNWZaiqp1ryDB2W8Q7mW-1" target="KNWZaiqp1ryDB2W8Q7mW-2">
          <mxGeometry width="80" relative="1" as="geometry">
            <mxPoint x="350" y="120" as="sourcePoint" />
            <mxPoint x="430" y="120" as="targetPoint" />
          </mxGeometry>
        </mxCell>
        <mxCell id="KNWZaiqp1ryDB2W8Q7mW-14" value="" style="html=1;verticalAlign=bottom;endArrow=block;curved=0;rounded=0;fontSize=12;startSize=8;endSize=8;exitX=0.5;exitY=1;exitDx=0;exitDy=0;entryX=0.5;entryY=0;entryDx=0;entryDy=0;" edge="1" parent="1" source="KNWZaiqp1ryDB2W8Q7mW-2" target="KNWZaiqp1ryDB2W8Q7mW-3">
          <mxGeometry width="80" relative="1" as="geometry">
            <mxPoint x="389.5" y="220" as="sourcePoint" />
            <mxPoint x="620" y="170" as="targetPoint" />
          </mxGeometry>
        </mxCell>
        <mxCell id="KNWZaiqp1ryDB2W8Q7mW-15" value="" style="html=1;verticalAlign=bottom;endArrow=block;curved=0;rounded=0;fontSize=12;startSize=8;endSize=8;exitX=0;exitY=0.5;exitDx=0;exitDy=0;entryX=0.5;entryY=1;entryDx=0;entryDy=0;" edge="1" parent="1" source="KNWZaiqp1ryDB2W8Q7mW-3" target="KNWZaiqp1ryDB2W8Q7mW-5">
          <mxGeometry width="80" relative="1" as="geometry">
            <mxPoint x="230" y="320" as="sourcePoint" />
            <mxPoint x="230" y="410" as="targetPoint" />
            <Array as="points">
              <mxPoint x="190" y="280" />
            </Array>
          </mxGeometry>
        </mxCell>
        <mxCell id="KNWZaiqp1ryDB2W8Q7mW-17" value="" style="html=1;verticalAlign=bottom;endArrow=block;curved=0;rounded=0;fontSize=12;startSize=8;endSize=8;exitX=0.5;exitY=0;exitDx=0;exitDy=0;entryX=0.5;entryY=1;entryDx=0;entryDy=0;" edge="1" parent="1" source="KNWZaiqp1ryDB2W8Q7mW-5" target="KNWZaiqp1ryDB2W8Q7mW-4">
          <mxGeometry width="80" relative="1" as="geometry">
            <mxPoint x="430" y="110" as="sourcePoint" />
            <mxPoint x="430" y="200" as="targetPoint" />
          </mxGeometry>
        </mxCell>
        <mxCell id="KNWZaiqp1ryDB2W8Q7mW-18" value="No" style="html=1;verticalAlign=bottom;endArrow=block;curved=0;rounded=0;fontSize=12;startSize=8;endSize=8;exitX=1;exitY=0.5;exitDx=0;exitDy=0;entryX=0;entryY=0.5;entryDx=0;entryDy=0;" edge="1" parent="1" source="KNWZaiqp1ryDB2W8Q7mW-4" target="KNWZaiqp1ryDB2W8Q7mW-2">
          <mxGeometry x="-0.5" width="80" relative="1" as="geometry">
            <mxPoint x="290" y="145" as="sourcePoint" />
            <mxPoint x="290" y="235" as="targetPoint" />
            <Array as="points" />
            <mxPoint as="offset" />
          </mxGeometry>
        </mxCell>
        <mxCell id="KNWZaiqp1ryDB2W8Q7mW-19" value="Yes" style="html=1;verticalAlign=bottom;endArrow=block;curved=0;rounded=0;fontSize=12;startSize=8;endSize=8;exitX=0.5;exitY=0;exitDx=0;exitDy=0;entryX=0;entryY=0.5;entryDx=0;entryDy=0;" edge="1" parent="1" source="KNWZaiqp1ryDB2W8Q7mW-4" target="KNWZaiqp1ryDB2W8Q7mW-1">
          <mxGeometry x="0.6842" width="80" relative="1" as="geometry">
            <mxPoint x="450" y="130" as="sourcePoint" />
            <mxPoint x="450" y="220" as="targetPoint" />
            <Array as="points">
              <mxPoint x="190" y="40" />
            </Array>
            <mxPoint as="offset" />
          </mxGeometry>
        </mxCell>
        <mxCell id="KNWZaiqp1ryDB2W8Q7mW-20" value="" style="html=1;verticalAlign=bottom;endArrow=block;curved=0;rounded=0;fontSize=12;startSize=8;endSize=8;exitX=0.5;exitY=1;exitDx=0;exitDy=0;entryX=1;entryY=0.5;entryDx=0;entryDy=0;" edge="1" parent="1" source="KNWZaiqp1ryDB2W8Q7mW-2" target="KNWZaiqp1ryDB2W8Q7mW-5">
          <mxGeometry width="80" relative="1" as="geometry">
            <mxPoint x="460" y="140" as="sourcePoint" />
            <mxPoint x="460" y="230" as="targetPoint" />
            <Array as="points">
              <mxPoint x="390" y="220" />
            </Array>
          </mxGeometry>
        </mxCell>
        <mxCell id="KNWZaiqp1ryDB2W8Q7mW-21" value="클리어" style="rounded=0;whiteSpace=wrap;html=1;fontSize=16;fillColor=#d5e8d4;strokeColor=#82b366;" vertex="1" parent="1">
          <mxGeometry x="490" y="250" width="120" height="60" as="geometry" />
        </mxCell>
        <mxCell id="KNWZaiqp1ryDB2W8Q7mW-22" value="결과창&lt;br&gt;출력" style="rounded=0;whiteSpace=wrap;html=1;fontSize=16;fillColor=#d5e8d4;strokeColor=#82b366;" vertex="1" parent="1">
          <mxGeometry x="490" y="100" width="120" height="60" as="geometry" />
        </mxCell>
        <mxCell id="KNWZaiqp1ryDB2W8Q7mW-24" value="" style="html=1;verticalAlign=bottom;endArrow=block;curved=0;rounded=0;fontSize=12;startSize=8;endSize=8;exitX=1;exitY=0.5;exitDx=0;exitDy=0;entryX=0;entryY=0.5;entryDx=0;entryDy=0;" edge="1" parent="1" source="KNWZaiqp1ryDB2W8Q7mW-3" target="KNWZaiqp1ryDB2W8Q7mW-21">
          <mxGeometry width="80" relative="1" as="geometry">
            <mxPoint x="400" y="80" as="sourcePoint" />
            <mxPoint x="400" y="110" as="targetPoint" />
          </mxGeometry>
        </mxCell>
        <mxCell id="KNWZaiqp1ryDB2W8Q7mW-25" value="" style="html=1;verticalAlign=bottom;endArrow=block;curved=0;rounded=0;fontSize=12;startSize=8;endSize=8;exitX=0.5;exitY=0;exitDx=0;exitDy=0;entryX=0.5;entryY=1;entryDx=0;entryDy=0;" edge="1" parent="1" source="KNWZaiqp1ryDB2W8Q7mW-21" target="KNWZaiqp1ryDB2W8Q7mW-22">
          <mxGeometry width="80" relative="1" as="geometry">
            <mxPoint x="460" y="290" as="sourcePoint" />
            <mxPoint x="530" y="290" as="targetPoint" />
          </mxGeometry>
        </mxCell>
        <mxCell id="KNWZaiqp1ryDB2W8Q7mW-26" value="" style="html=1;verticalAlign=bottom;endArrow=block;curved=0;rounded=0;fontSize=12;startSize=8;endSize=8;exitX=1;exitY=0.5;exitDx=0;exitDy=0;entryX=0;entryY=0.5;entryDx=0;entryDy=0;" edge="1" parent="1" source="KNWZaiqp1ryDB2W8Q7mW-2" target="KNWZaiqp1ryDB2W8Q7mW-22">
          <mxGeometry width="80" relative="1" as="geometry">
            <mxPoint x="470" y="300" as="sourcePoint" />
            <mxPoint x="540" y="300" as="targetPoint" />
          </mxGeometry>
        </mxCell>
        <mxCell id="KNWZaiqp1ryDB2W8Q7mW-27" value="" style="html=1;verticalAlign=bottom;endArrow=block;curved=0;rounded=0;fontSize=12;startSize=8;endSize=8;exitX=0.5;exitY=0;exitDx=0;exitDy=0;entryX=1;entryY=0.5;entryDx=0;entryDy=0;" edge="1" parent="1" source="KNWZaiqp1ryDB2W8Q7mW-22" target="KNWZaiqp1ryDB2W8Q7mW-1">
          <mxGeometry width="80" relative="1" as="geometry">
            <mxPoint x="480" y="310" as="sourcePoint" />
            <mxPoint x="550" y="310" as="targetPoint" />
            <Array as="points">
              <mxPoint x="550" y="40" />
            </Array>
          </mxGeometry>
        </mxCell>
      </root>
    </mxGraphModel>
  </diagram>
</mxfile>
